<svg xmlns="http://www.w3.org/2000/svg" xmlns:xlink="http://www.w3.org/1999/xlink" width="120" height="70" viewBox="0 0 120 70">
  <defs>
    <polygon id="logo-a" points=".292 .221 4.845 .221 4.845 6.076 .292 6.076"/>
  </defs>
  <g fill="none" fill-rule="evenodd">
    <g fill-rule="nonzero" transform="translate(37.695)">
      <polygon fill="#F7B335" points="34.549 0 0 39.424 8.521 35.573 36.322 3.85 41.623 3.85 50.144 0"/>
      <polygon fill="#DA6626" points="41.623 3.85 13.823 35.573 8.521 35.573 0 39.424 15.595 39.424 50.144 0"/>
      <polygon fill="#EE383F" points="37.975 27.007 43.294 27.007 51.873 23.17 36.199 23.17 21.787 39.424 30.366 35.587"/>
      <polygon fill="#B71F2D" points="43.293 27.007 35.685 35.587 30.366 35.587 21.787 39.424 37.461 39.424 51.873 23.17"/>
    </g>
    <polygon fill="#231F20" fill-rule="nonzero" points="6.957 48.069 6.957 52.358 2.71 52.358 2.71 48.069 0 48.069 0 59.135 2.71 59.135 2.71 54.518 6.957 54.518 6.957 59.135 9.683 59.135 9.683 48.069"/>
    <polygon fill="#231F20" fill-rule="nonzero" points="21.708 50.198 21.708 52.515 25.465 52.515 25.465 54.534 21.708 54.534 21.708 56.991 25.937 56.991 25.937 59.135 19.02 59.135 19.02 48.069 25.937 48.069 25.937 50.198"/>
    <path fill="#231F20" fill-rule="nonzero" d="M41.469472,55.1800724 L40.1076771,51.2097064 L38.7298893,55.1800724 L41.469472,55.1800724 Z M42.1507691,57.1660444 L38.0493918,57.1660444 L37.3680944,59.1354467 L34.5821326,59.1354467 L38.5907512,48.4149856 L41.6397963,48.4149856 L45.648415,59.1354467 L42.8320665,59.1354467 L42.1507691,57.1660444 Z"/>
    <g transform="translate(18.674 48.07)">
      <path fill="#231F20" fill-rule="nonzero" d="M42.2626866,7.81824827 C42.8384739,7.26913338 43.1263674,6.49764308 43.1263674,5.50297449 C43.1263674,4.5083059 42.8384739,3.73681556 42.2626866,3.1877007 C41.6868996,2.63858584 40.8795112,2.36402841 39.8421296,2.36402841 L38.5811882,2.36402841 L38.5811882,8.64192055 L39.8421296,8.64192055 C40.8795112,8.64192055 41.6868996,8.36736311 42.2626866,7.81824827 M45.1271467,8.36977152 C44.664748,9.20388021 44.0013061,9.85414779 43.1344091,10.3205743 C42.2675118,10.786198 41.2486261,11.0190099 40.0753394,11.0190099 L35.9201837,11.0190099 L35.9201837,0.0335014409 L40.0753394,0.0335014409 C41.2582762,0.0335014409 42.2803784,0.261496501 43.1424508,0.717486619 C44.0029145,1.17267394 44.664748,1.81491354 45.1271467,2.64420543 C45.5887414,3.47269452 45.8195388,4.42561753 45.8195388,5.50297449 C45.8195388,6.58033141 45.5887414,7.53646561 45.1271467,8.36977152 M57.7732309,5.05236311 L59.4233914,5.05236311 C59.9525367,5.05236311 60.3417559,4.9359572 60.5902447,4.70234251 C60.839538,4.46953069 60.9641848,4.12512968 60.9641848,3.66913957 C60.9641848,3.23402223 60.8371255,2.89283244 60.5830074,2.6439646 C60.3288889,2.39509675 59.9420822,2.27146562 59.4233914,2.27146562 L57.7732309,2.27146562 L57.7732309,5.05236311 Z M60.7615335,11.0195719 L58.3803807,6.87070399 L57.7732309,6.87070399 L57.7732309,11.0195719 L55.1114224,11.0195719 L55.1114224,0.0332606011 L59.6566015,0.0332606011 C60.5283237,0.0332606011 61.2649449,0.184186908 61.8672695,0.484433924 C62.4687901,0.784680937 62.9199306,1.19651708 63.2214951,1.71913956 C63.5222552,2.24256484 63.6726353,2.84145327 63.6726353,3.51419927 C63.6726353,4.31218198 63.4522924,4.99054755 63.0108021,5.5500988 C62.5701157,6.10884726 61.9291909,6.49258544 61.0888312,6.69970769 L63.7039982,11.0195719 L60.7615335,11.0195719 Z M75.3774367,0.033340881 L75.3774367,6.37304856 C75.3774367,7.09877934 75.5406833,7.652711 75.8679814,8.03564635 C76.1952792,8.41938453 76.6689365,8.6112536 77.2921695,8.6112536 C77.9145987,8.6112536 78.3898641,8.41938453 78.7163578,8.03564635 C79.0428515,7.652711 79.2069026,7.09877934 79.2069026,6.37304856 L79.2069026,0.033340881 L81.8679071,0.033340881 L81.8679071,6.37304856 C81.8679071,7.40946273 81.6660602,8.28210581 81.2607576,8.99178055 C80.856259,9.70145533 80.3037932,10.235317 79.6033594,10.59176 C78.9029256,10.9498086 78.1116207,11.1280301 77.2294444,11.1280301 C76.348072,11.1280301 75.5696334,10.952217 74.8949336,10.599788 C74.2202334,10.2481618 73.6910881,9.71430014 73.3074982,8.99900576 C72.9231043,8.28451421 72.7309072,7.40946273 72.7309072,6.37304856 L72.7309072,0.033340881 L75.3774367,0.033340881 Z"/>
      <polygon fill="#231F20" fill-rule="nonzero" points="101.2 11.019 98.538 11.019 94.087 4.276 94.087 11.019 91.425 11.019 91.425 .033 94.087 .033 98.538 6.839 98.538 .033 101.2 .033"/>
      <polygon fill="#231F20" fill-rule="nonzero" points=".224 15.556 1.422 15.556 3.628 20.688 3.802 20.688 3.802 15.556 4.435 15.556 4.435 21.247 3.261 21.247 1.023 16.115 .865 16.115 .865 21.247 .224 21.247"/>
      <polygon fill="#231F20" fill-rule="nonzero" points="10.013 15.556 13.517 15.556 13.517 16.115 10.654 16.115 10.654 18.081 13.017 18.081 13.017 18.633 10.654 18.633 10.654 20.688 13.517 20.688 13.517 21.247 10.013 21.247"/>
      <polygon fill="#231F20" fill-rule="nonzero" points="22.714 15.556 21.208 21.247 19.777 21.247 18.27 15.556 18.935 15.556 20.259 20.688 20.726 20.688 22.049 15.556"/>
      <polygon fill="#231F20" fill-rule="nonzero" points="27.784 15.556 31.288 15.556 31.288 16.115 28.425 16.115 28.425 18.081 30.789 18.081 30.789 18.633 28.425 18.633 28.425 20.688 31.288 20.688 31.288 21.247 27.784 21.247"/>
      <path fill="#231F20" fill-rule="nonzero" d="M38.6800209,16.1151811 L37.1898906,16.1151811 L37.1898906,18.5083265 L38.6880626,18.5083265 C39.5533515,18.5083265 39.8621533,17.9985488 39.8621533,17.2832544 C39.8621533,16.5013277 39.4874092,16.1151811 38.6800209,16.1151811 Z M37.1898906,19.0678777 L37.1898906,21.2474784 L36.5497698,21.2474784 L36.5497698,15.5564327 L38.6800209,15.5564327 C39.8870829,15.5564327 40.519162,16.0822664 40.519162,17.2832544 C40.519162,18.1221799 40.187039,18.706618 39.46248,18.9362186 L40.5698248,21.2474784 L39.8621533,21.2474784 L38.8215552,19.0678777 L37.1898906,19.0678777 Z M55.0614833,16.1645533 C55.0614833,16.1645533 53.9042801,16.0248662 53.4217767,16.0248662 C52.6055426,16.0248662 52.172898,16.3130712 52.172898,16.9537052 C52.172898,17.6946892 52.5725713,17.8183203 53.5793945,18.0398929 C54.728556,18.2943804 55.2359886,18.5745574 55.2359886,19.569226 C55.2359886,20.8280157 54.5371632,21.3217373 53.3968475,21.3217373 C52.7141056,21.3217373 51.5737902,21.1403047 51.5737902,21.1403047 L51.6405361,20.6136682 C51.6405361,20.6136682 52.7720061,20.7621861 53.3630722,20.7621861 C54.1793066,20.7621861 54.5950634,20.4089543 54.5950634,19.6189996 C54.5950634,18.9775628 54.2540946,18.7969329 53.3132137,18.6155002 C52.1230395,18.3602099 51.5239314,18.0808357 51.5239314,16.9954508 C51.5239314,15.8932071 52.2565318,15.4653149 53.37996,15.4653149 C54.0627019,15.4653149 55.1193835,15.6298889 55.1193835,15.6298889 L55.0614833,16.1645533 Z"/>
      <polygon fill="#231F20" fill-rule="nonzero" points="59.906 15.556 64.068 15.556 64.068 16.124 62.312 16.124 62.312 21.247 61.679 21.247 61.679 16.124 59.906 16.124"/>
      <g transform="translate(68.355 15.253)">
        <mask id="logo-b" fill="#fff">
          <use xlink:href="#logo-a"/>
        </mask>
        <path fill="#231F20" fill-rule="nonzero" d="M4.17879842,3.17317003 C4.17879842,1.63500618 3.87884231,0.780024702 2.56402141,0.780024702 C1.2403546,0.780024702 0.949244407,1.62697818 0.949244407,3.17317003 C0.949244407,4.72819266 1.23231289,5.51734458 2.56402141,5.51734458 C3.90377163,5.51734458 4.17879842,4.77716345 4.17879842,3.17317003 M0.292236037,3.17317003 C0.292236037,1.29783038 0.782780843,0.220473446 2.56402141,0.220473446 C4.34526197,0.220473446 4.84465266,1.28177439 4.84465266,3.17317003 C4.84465266,5.13039524 4.3533037,6.07689583 2.56402141,6.07689583 C0.774739124,6.07689583 0.292236037,5.08142445 0.292236037,3.17317003" mask="url(#logo-b)"/>
      </g>
      <path fill="#231F20" fill-rule="nonzero" d="M80.6323778,18.771725 C81.4727371,18.771725 81.8225519,18.2699753 81.8225519,17.3901071 C81.8225519,16.5182668 81.4727371,16.1152614 80.6323778,16.1152614 L79.1760225,16.1152614 L79.1760225,18.771725 L80.6323778,18.771725 Z M79.1760225,19.3312762 L79.1760225,21.2475587 L78.5350976,21.2475587 L78.5350976,15.556513 L80.6412235,15.556513 C81.898144,15.556513 82.4803646,16.1562042 82.4803646,17.3901071 C82.4803646,18.6320379 81.898144,19.3312762 80.6412235,19.3312762 L79.1760225,19.3312762 Z"/>
    </g>
  </g>
</svg>
